<?xml version="1.0" encoding="utf-8"?>
<!-- Generator: Adobe Illustrator 21.0.0, SVG Export Plug-In . SVG Version: 6.00 Build 0)  -->
<svg version="1.1" id="Layer_1" xmlns="http://www.w3.org/2000/svg" xmlns:xlink="http://www.w3.org/1999/xlink" x="0px" y="0px"
	 viewBox="0 0 150 50" style="enable-background:new 0 0 150 50;" xml:space="preserve">
<style type="text/css">
	.st0{fill:none;stroke:#FFFFFF;stroke-width:3;stroke-miterlimit:10;}
	.st1{fill:#C1A57B;}
	.st2{fill:none;stroke:#FFFFFF;stroke-width:3;stroke-linecap:round;stroke-linejoin:round;stroke-miterlimit:10;}
	.st3{fill:none;stroke:#FFFFFF;stroke-width:0.667;stroke-linecap:round;stroke-linejoin:round;stroke-miterlimit:10;}
	.st4{fill:#FFFFFF;}
	.st5{fill:none;stroke:#FFFFFF;stroke-width:1.5;stroke-miterlimit:10;}
	.st6{fill:#ECECEC;}
</style>
<path class="st0" d="M31.3,81.9"/>
<path class="st1" d="M-24.2,45h-36.5c-0.7,0-1.3-0.6-1.3-1.3V6.3c0-0.7,0.6-1.3,1.3-1.3h36.5c0.7,0,1.3,0.6,1.3,1.3v37.5
	C-22.9,44.4-23.5,45-24.2,45z"/>
<polyline class="st2" points="-76.4,20 -42.4,11.1 -8.5,20 "/>
<line class="st3" x1="-42.4" y1="11.4" x2="-42.4" y2="21.7"/>
<path class="st4" d="M-42.4,18.5c-3,0-5.5,2.5-5.5,5.5h11C-36.9,21-39.4,18.5-42.4,18.5z"/>
<g>
	<g>
		<line class="st5" x1="-56.4" y1="31" x2="-56.4" y2="45"/>
		<polyline class="st5" points="-49.4,45 -49.4,40 -56.4,40 		"/>
	</g>
	<g>
		<line class="st5" x1="-28.4" y1="31" x2="-28.4" y2="45"/>
		<polyline class="st5" points="-35.4,45 -35.4,40 -28.5,40 		"/>
	</g>
</g>
<g>
	<polyline class="st5" points="-46.4,45 -46.4,41 -38.4,41 -38.4,45 	"/>
	<line class="st5" x1="-50.4" y1="37" x2="-34.4" y2="37"/>
	<line class="st5" x1="-46.4" y1="41" x2="-46.4" y2="37"/>
	<line class="st5" x1="-38.4" y1="41" x2="-38.4" y2="37"/>
</g>
<g>
	<rect x="38.3" y="39.8" class="st1" width="5.5" height="4.3"/>
	<rect x="27.3" y="40.8" class="st1" width="6.5" height="3.3"/>
	<rect x="27.3" y="36.8" class="st1" width="6.5" height="2.5"/>
	<rect x="17.3" y="39.8" class="st1" width="5.5" height="4.3"/>
	<g>
		<path class="st1" d="M31,8.6l19.1,5V5.3c0-0.7-0.6-1.3-1.3-1.3H12.3c-0.7,0-1.3,0.6-1.3,1.3v8.4l19.1-5C30.5,8.5,30.7,8.5,31,8.6z
			"/>
		<path class="st1" d="M30.9,17.5c2.9,0.2,5.2,2.6,5.2,5.5h-11c0-2.9,2.3-5.3,5.2-5.5v-5.8l-19.2,5v26c0,0.7,0.6,1.3,1.3,1.3h3.5V30
			h1.5v8.3h7V44h1.5v-4v-0.8v-2.5h-3.3v-1.5h16v1.5h-3.3v2.5V40v4h1.5v-5.8h7V30h1.5v14h3.5c0.7,0,1.3-0.6,1.3-1.3v-26l-19.2-5V17.5
			z"/>
	</g>
</g>
<path class="st6" d="M61.8,18.8c0.2,0,0.4,0.2,0.4,0.4V27h0.7c0.6,0,1.3,0,1.9-0.1c0.6,0,1.3-0.1,2-0.2l0.1,1c0,0.2-0.1,0.4-0.4,0.5
	c-0.6,0.1-1.1,0.1-1.8,0.2c-0.8,0-1.6,0.1-2.6,0.1H61c-0.2,0-0.4-0.2-0.4-0.4v-8.7c0-0.2,0.2-0.4,0.4-0.4H61.8z M72.6,32.6h-0.8
	c-0.2,0-0.4-0.2-0.4-0.4v-8c0-0.2-0.2-0.4-0.4-0.4h-1.1c-0.2,0-0.4,0.2-0.4,0.4v7.2c0,0.2-0.2,0.4-0.4,0.4h-0.8
	c-0.2,0-0.4-0.2-0.4-0.4V18.1c0-0.2,0.2-0.4,0.4-0.4h0.8c0.2,0,0.4,0.2,0.4,0.4v3.8c0,0.2,0.2,0.4,0.4,0.4H71c0.2,0,0.4-0.2,0.4-0.4
	v-4.1c0-0.2,0.2-0.4,0.4-0.4h0.8c0.2,0,0.4,0.2,0.4,0.4v14.3C73,32.4,72.8,32.6,72.6,32.6z"/>
<path class="st1" d="M83,21.8c-0.1,0.2-0.2,0.4-0.5,0.7c-0.3,0.3-0.6,0.6-0.9,0.9c-0.4,0.3-0.9,0.7-1.5,1.1
	c-0.4,0.3-0.9,0.6-1.3,0.9c-0.2,0.2-0.6,0.1-0.7-0.1l-0.5-0.6c-0.2-0.2-0.1-0.6,0.1-0.8c0.5-0.3,1-0.7,1.4-1
	c0.6-0.4,1.1-0.8,1.5-1.2c0.3-0.3,0.5-0.5,0.7-0.7c0.2-0.2,0.3-0.5,0.4-0.7s0.2-0.5,0.2-0.8c0-0.3,0-0.6,0-1v-0.2h-4.1v-1.8h10.1
	v1.8H84v0.1c0,0.3,0,0.6,0,0.9c0,0.3,0,0.5,0.1,0.7c0.1,0.2,0.2,0.4,0.3,0.6c0.1,0.2,0.3,0.4,0.6,0.6c0.5,0.4,1,0.8,1.6,1.2
	c0.4,0.3,0.9,0.6,1.3,0.9c0.3,0.2,0.3,0.5,0.1,0.8l-0.5,0.6c-0.2,0.2-0.5,0.3-0.7,0.1c-0.4-0.3-0.8-0.5-1.2-0.8
	c-0.5-0.4-1-0.7-1.5-1.1c-0.3-0.2-0.5-0.4-0.8-0.6S83.1,21.9,83,21.8L83,21.8z M92.6,26.7v7.4c0,0.3-0.2,0.5-0.5,0.5H81.2
	c-0.3,0-0.5-0.2-0.5-0.5v-7.4c0-0.3,0.2-0.5,0.5-0.5h1c0.3,0,0.5,0.2,0.5,0.5V28c0,0.3,0.2,0.5,0.5,0.5h6.8c0.3,0,0.5-0.2,0.5-0.5
	v-1.3c0-0.3,0.2-0.5,0.5-0.5h1C92.4,26.2,92.6,26.4,92.6,26.7z M90.6,32.3v-1.4c0-0.3-0.2-0.5-0.5-0.5h-6.8c-0.3,0-0.5,0.2-0.5,0.5
	v1.4c0,0.3,0.2,0.5,0.5,0.5h6.8C90.4,32.9,90.6,32.6,90.6,32.3z M90.6,24.7v-8.8c0-0.3,0.2-0.5,0.5-0.5h1c0.3,0,0.5,0.2,0.5,0.5v8.8
	c0,0.3-0.2,0.5-0.5,0.5h-1C90.8,25.2,90.6,25,90.6,24.7z"/>
<path class="st6" d="M102.9,31.6v-5.3c0-0.2-0.2-0.4-0.4-0.4h-5.7v-1.4h3.8c0.2,0,0.4-0.1,0.4-0.3c0.1-0.3,0.2-0.6,0.2-1
	c0.1-0.4,0.2-0.9,0.2-1.3c0.1-0.4,0.1-0.8,0.1-1.1c0-0.4,0-0.7,0-0.9v-0.6h-3c-0.2,0-0.4-0.2-0.4-0.4v-0.6c0-0.2,0.2-0.4,0.4-0.4
	h4.6V19c0,0.9,0,1.9-0.1,2.8c-0.1,0.8-0.2,1.5-0.3,2.1c-0.1,0.3,0.1,0.5,0.4,0.5h3.3c0.2,0,0.4-0.1,0.4-0.3c0.2-0.8,0.3-1.5,0.3-2.2
	c0.1-0.7,0.1-1.4,0.1-2v-0.6h-2.9c-0.2,0-0.4-0.2-0.4-0.4v-0.6c0-0.2,0.2-0.4,0.4-0.4h4.5v1.2c0,0.8,0,1.7-0.1,2.6
	c0,0.8-0.1,1.5-0.3,2.3c-0.1,0.3,0.1,0.5,0.4,0.5h1.9v1.4H105c-0.2,0-0.4,0.2-0.4,0.4v5.3c0,0.2-0.2,0.4-0.4,0.4h-0.8
	C103.1,32.1,102.9,31.9,102.9,31.6z"/>
<path class="st6" d="M112.9,28.1v-8.9c0-0.2,0.2-0.4,0.4-0.4h6.2c0.2,0,0.4,0.2,0.4,0.4v8.9c0,0.2-0.2,0.4-0.4,0.4h-6.2
	C113,28.6,112.9,28.4,112.9,28.1z M114.9,27.2h3c0.2,0,0.4-0.2,0.4-0.4v-6.2c0-0.2-0.2-0.4-0.4-0.4h-3c-0.2,0-0.4,0.2-0.4,0.4v6.2
	C114.5,27,114.7,27.2,114.9,27.2z M122.7,32.1V17.8c0-0.2,0.2-0.4,0.4-0.4h0.8c0.2,0,0.4,0.2,0.4,0.4v14.3c0,0.2-0.2,0.4-0.4,0.4
	h-0.8C122.9,32.6,122.7,32.4,122.7,32.1z"/>
<path class="st6" d="M127.6,28.3c-0.1-0.2-0.1-0.5,0.1-0.6c0.7-0.4,1.3-0.8,1.8-1.1c0.6-0.4,1.1-0.8,1.5-1.1c0.4-0.3,0.7-0.6,1-0.9
	c0.2-0.3,0.4-0.6,0.5-0.9c0.1-0.3,0.2-0.6,0.2-0.9c0-0.3,0-0.7,0-1.1v-1.1c0-0.2-0.2-0.4-0.4-0.4h-4.8v-1.4h6.4
	c0.2,0,0.4,0.2,0.4,0.4v2.5c0,0.5,0,0.9,0,1.3c0,0.4-0.1,0.8-0.2,1.1c-0.1,0.4-0.3,0.7-0.6,1.1c-0.3,0.3-0.6,0.7-1.1,1.1
	c-0.5,0.4-1,0.8-1.7,1.3c-0.6,0.4-1.3,0.9-2.2,1.4c-0.2,0.1-0.5,0.1-0.6-0.1L127.6,28.3z M137.7,32.1V17.8c0-0.2,0.2-0.4,0.4-0.4
	h0.8c0.2,0,0.4,0.2,0.4,0.4v14.3c0,0.2-0.2,0.4-0.4,0.4h-0.8C137.9,32.6,137.7,32.4,137.7,32.1z"/>
</svg>
